<svg id="Layer_1" data-name="Layer 1" xmlns="http://www.w3.org/2000/svg" viewBox="0 0 354.92 410.4"><defs><style>.cls-1{fill:#c19809;stroke-width:7.54px;}.cls-1,.cls-3{stroke:#121c1f;}.cls-1,.cls-3,.cls-5,.cls-6{stroke-miterlimit:10;}.cls-2{fill:#121c1f;}.cls-3{fill:#a979d9;stroke-width:16.28px;}.cls-4{fill:#fff;}.cls-5,.cls-6{fill:none;}.cls-5{stroke:#fff;stroke-width:3.21px;}.cls-6{stroke:#000;stroke-width:4.82px;}</style></defs><path class="cls-1" d="M83.9,321.73,66.27,384c8.57,2.11,13.27,3.58,20.84,3.58l28.17-60.31"/><path class="cls-1" d="M251.92,321.73,269.55,384c-6.7,1.88-10.62,3.58-20.84,3.58l-26.53-60"/><path class="cls-1" d="M267.83,311.12c0,10.62-44.73,19.23-99.92,19.23S68,321.74,68,311.12c0-3.45-4.69-24.25,3.57-27.05,17.18-5.81,59.09,7.83,96.36,7.83,36.26,0,78.78-14,96.29-8.46C273.34,286.34,267.83,307.48,267.83,311.12Z"/><ellipse class="cls-1" cx="167.91" cy="288.43" rx="99.92" ry="19.22"/><path class="cls-2" d="M180.93,291.71a34.07,34.07,0,0,1-14.52,2.74c-5.9,0-10.51-.78-14.53-2.74V228h29.05Z"/><ellipse class="cls-3" cx="167.91" cy="125.46" rx="75.92" ry="102.59"/><path d="M209.1,129.1a48.89,48.89,0,0,0,0-8.89,63.29,63.29,0,0,0-6.92-1.24,35.8,35.8,0,0,0-3.94-11.68,68.9,68.9,0,0,0,4.57-5.74,43.61,43.61,0,0,0-5.32-6.8,64.58,64.58,0,0,0-6,3.83,32.09,32.09,0,0,0-4.73-3.6,28.31,28.31,0,0,0-5.26-2.61,70.43,70.43,0,0,0,.07-7.55,35.34,35.34,0,0,0-8.13-1.52,73,73,0,0,0-2.31,7.08,31.92,31.92,0,0,0-5.77.53,28.19,28.19,0,0,0-5.59,1.64,66.33,66.33,0,0,0-4.44-5.83,37.87,37.87,0,0,0-7.13,4.47,72.48,72.48,0,0,0,2.44,7,40,40,0,0,0-4.11,4.41,38.11,38.11,0,0,0-3.3,5.14,55.42,55.42,0,0,0-6.85-1.39,40.42,40.42,0,0,0-2.82,8.37,55.49,55.49,0,0,0,6.07,3.69,44.77,44.77,0,0,0-.55,6.22,44.78,44.78,0,0,0,.55,6.23,55.49,55.49,0,0,0-6.07,3.69,40.33,40.33,0,0,0,2.82,8.36,53.6,53.6,0,0,0,6.85-1.38,38.11,38.11,0,0,0,3.3,5.14,40,40,0,0,0,4.11,4.41,69.88,69.88,0,0,0-2.44,7,38.38,38.38,0,0,0,7.13,4.47,66.33,66.33,0,0,0,4.44-5.83,28.19,28.19,0,0,0,5.59,1.64,31.92,31.92,0,0,0,5.77.53,73,73,0,0,0,2.31,7.08,35.36,35.36,0,0,0,8.13-1.53,70.27,70.27,0,0,0-.07-7.54,28.31,28.31,0,0,0,5.26-2.61,32.09,32.09,0,0,0,4.73-3.6,64.58,64.58,0,0,0,6,3.83,43.61,43.61,0,0,0,5.32-6.8,67.29,67.29,0,0,0-4.57-5.74,35.75,35.75,0,0,0,3.94-11.69A60.94,60.94,0,0,0,209.1,129.1Z"/><path class="cls-2" d="M170.84,145.42a17.18,17.18,0,0,1-3.45-.35,19.13,19.13,0,0,1-11.54-7.18,21.8,21.8,0,0,1,0-26.48,19.2,19.2,0,0,1,11.58-7.18,17.22,17.22,0,0,1,3.41-.34,18.78,18.78,0,0,1,9.84,2.84,20.42,20.42,0,0,1,8.51,10.91,21.9,21.9,0,0,1,0,14.06,20.47,20.47,0,0,1-8.52,10.89A18.71,18.71,0,0,1,170.84,145.42Z"/><path class="cls-4" d="M170.84,107.18a15.54,15.54,0,0,1,8.11,2.35,17.06,17.06,0,0,1,7.12,9.15,18.63,18.63,0,0,1,0,11.94,17.05,17.05,0,0,1-7.12,9.16,15.54,15.54,0,0,1-8.11,2.35,13.75,13.75,0,0,1-2.79-.28,16.06,16.06,0,0,1-9.6-6,18.52,18.52,0,0,1,0-22.45,16,16,0,0,1,9.6-6,13.75,13.75,0,0,1,2.79-.28m0-6.58h0a20.28,20.28,0,0,0-4.12.42,22.44,22.44,0,0,0-13.48,8.39,25.1,25.1,0,0,0,0,30.5,22.49,22.49,0,0,0,13.56,8.4,20.17,20.17,0,0,0,4,.4,22,22,0,0,0,11.56-3.33,23.7,23.7,0,0,0,9.91-12.68,25.28,25.28,0,0,0,0-16.17,23.76,23.76,0,0,0-9.92-12.62,22,22,0,0,0-11.53-3.31Z"/><path class="cls-5" d="M160.05,126.32a14.09,14.09,0,0,1,2.88-8.52,12.11,12.11,0,0,1,7.28-4.53"/><path class="cls-6" d="M203.94,124.65h20.57s1.16,67.53-64.46,108.21"/></svg>
